<mxfile host="app.diagrams.net" modified="2024-01-16T14:12:15.540Z" agent="Mozilla/5.0 (Windows NT 10.0; Win64; x64) AppleWebKit/537.36 (KHTML, like Gecko) Chrome/120.0.0.0 Safari/537.36" version="22.1.16" etag="a2Vxz_yYKAJ5qC-BXt38" type="github">
  <diagram name="Page-1" id="aFxA03_TfYZvb6Thjo3G">
    <mxGraphModel>
      <root>
        <mxCell id="0" />
        <mxCell id="1" parent="0" />
      </root>
    </mxGraphModel>
  </diagram>
</mxfile>
